<svg width="31" height="30" viewBox="0 0 31 30" fill="none" xmlns="http://www.w3.org/2000/svg">
<path fill-rule="evenodd" clip-rule="evenodd" d="M10.3367 0H21.5867C26.7635 0 30.9617 4.19812 30.9617 9.375V20.625C30.9617 25.8019 26.7635 30 21.5867 30H10.3367C5.15979 30 0.96167 25.8019 0.96167 20.625V9.375C0.96167 4.19812 5.15979 0 10.3367 0ZM21.5867 27.1875C25.2054 27.1875 28.1492 24.2437 28.1492 20.625V9.375C28.1492 5.75625 25.2054 2.8125 21.5867 2.8125H10.3367C6.71792 2.8125 3.77417 5.75625 3.77417 9.375V20.625C3.77417 24.2437 6.71792 27.1875 10.3367 27.1875H21.5867Z" fill="black"/>
<path fill-rule="evenodd" clip-rule="evenodd" d="M8.46167 15C8.46167 10.8581 11.8198 7.5 15.9617 7.5C20.1035 7.5 23.4617 10.8581 23.4617 15C23.4617 19.1419 20.1035 22.5 15.9617 22.5C11.8198 22.5 8.46167 19.1419 8.46167 15ZM11.2742 15C11.2742 17.5837 13.3779 19.6875 15.9617 19.6875C18.5454 19.6875 20.6492 17.5837 20.6492 15C20.6492 12.4144 18.5454 10.3125 15.9617 10.3125C13.3779 10.3125 11.2742 12.4144 11.2742 15Z" fill="black"/>
<circle cx="24.0242" cy="6.93761" r="0.999375" fill="black"/>
</svg>
