<svg width="31" height="25" viewBox="0 0 31 25" fill="none" xmlns="http://www.w3.org/2000/svg">
<path d="M30.9617 2.95962C29.846 3.46154 28.6573 3.79423 27.4179 3.95577C28.6929 3.175 29.666 1.94808 30.1235 0.469231C28.9348 1.19615 27.6223 1.70962 26.2235 1.99615C25.0948 0.763462 23.486 0 21.731 0C18.326 0 15.5848 2.83462 15.5848 6.30962C15.5848 6.80962 15.626 7.29038 15.7273 7.74808C10.6142 7.49231 6.08979 4.97885 3.05042 1.15C2.51979 2.09423 2.20854 3.175 2.20854 4.33846C2.20854 6.52308 3.30542 8.45962 4.94042 9.58077C3.95229 9.56154 2.98292 9.26731 2.16167 8.80385C2.16167 8.82308 2.16167 8.84808 2.16167 8.87308C2.16167 11.9385 4.29355 14.4846 7.08917 15.0712C6.58855 15.2115 6.04292 15.2788 5.47667 15.2788C5.08292 15.2788 4.68542 15.2558 4.31229 15.1712C5.10917 17.6692 7.37042 19.5058 10.0592 19.5654C7.96667 21.2442 5.3098 22.2558 2.43354 22.2558C1.92917 22.2558 1.44542 22.2327 0.96167 22.1692C3.68604 23.9712 6.9148 25 10.3967 25C21.7142 25 27.9017 15.3846 27.9017 7.05C27.9017 6.77115 27.8923 6.50192 27.8792 6.23462C29.0998 5.34615 30.1254 4.23654 30.9617 2.95962Z" fill="black"/>
</svg>
